<?xml version="1.0" encoding="utf-8" standalone="no"?>
<!DOCTYPE svg PUBLIC "-//W3C//DTD SVG 1.1//EN"
  "http://www.w3.org/Graphics/SVG/1.1/DTD/svg11.dtd">
<!-- Created with matplotlib (http://matplotlib.org/) -->
<svg height="432pt" version="1.1" viewBox="0 0 504 432" width="504pt" xmlns="http://www.w3.org/2000/svg" xmlns:xlink="http://www.w3.org/1999/xlink">
 <defs>
  <style type="text/css">
*{stroke-linecap:butt;stroke-linejoin:round;stroke-miterlimit:100000;}
  </style>
 </defs>
 <g id="figure_1">
  <g id="patch_1">
   <path d="M 0 432 
L 504 432 
L 504 0 
L 0 0 
z
" style="fill:#ffffff;"/>
  </g>
  <g id="axes_1">
   <g id="patch_2">
    <path d="M 63 388.8 
L 453.6 388.8 
L 453.6 43.2 
L 63 43.2 
z
" style="fill:#ffffff;"/>
   </g>
   <g id="line2d_1">
    <path clip-path="url(#pf8340b7136)" d="M 62.48082 351.530481 
L 63.00162 355.262957 
L 63.52242 357.004788 
L 64.04322 359.244274 
L 64.56402 356.755974 
L 65.08482 355.262957 
L 66.12642 348.5445 
L 67.16802 338.591222 
L 67.68882 335.107586 
L 68.20962 329.633279 
L 68.73042 328.637943 
L 69.25122 326.398457 
L 70.29282 325.900802 
L 70.81362 327.144952 
L 71.33442 328.886783 
L 71.85522 331.126269 
L 72.89682 337.347071 
L 73.41762 339.088876 
L 73.93842 341.577202 
L 74.45922 341.328388 
L 74.98002 340.581893 
L 75.50082 338.342381 
L 77.06322 329.135598 
L 77.58402 324.407812 
L 78.10482 324.158971 
L 78.62562 320.67531 
L 79.14642 321.17299 
L 79.66722 320.426495 
L 80.18802 319.928815 
L 80.70882 321.421805 
L 81.22962 325.403122 
L 81.75042 325.651962 
L 82.271219 327.642607 
L 82.792019 332.121605 
L 83.312819 335.605241 
L 83.833619 338.093567 
L 84.354419 341.328388 
L 84.875219 343.816688 
L 85.396019 344.812024 
L 85.916819 345.558519 
L 86.958419 342.323698 
L 87.479219 340.084212 
L 88.000019 335.854081 
L 88.520819 333.86341 
L 89.041619 329.384438 
L 90.083219 326.149617 
L 90.604019 323.163636 
L 91.124819 322.417141 
L 91.645619 320.67531 
L 92.166419 318.435824 
L 92.687219 316.942834 
L 93.208019 318.684664 
L 93.728819 318.684664 
L 94.249619 320.67531 
L 94.770419 324.158971 
L 95.291219 325.651962 
L 95.812019 329.882093 
L 96.332819 331.872764 
L 96.853619 335.107586 
L 97.374419 335.854081 
L 97.895219 337.098231 
L 98.416019 336.849391 
L 98.936819 339.835397 
L 99.457619 338.093567 
L 99.978419 334.11225 
L 100.499219 340.581893 
L 101.020019 334.858745 
L 101.540819 321.919486 
L 102.061619 329.633279 
L 102.582419 329.633279 
L 103.624019 322.914821 
L 104.144819 313.459198 
L 104.665619 314.205693 
L 105.186419 321.17299 
L 105.707219 319.68 
L 106.228019 317.440514 
L 106.748819 320.177655 
L 107.269619 321.17299 
L 107.790419 325.900802 
L 108.311219 327.144952 
L 108.832019 330.379774 
L 109.352819 330.628588 
L 109.873619 331.126269 
L 110.394419 329.882093 
L 110.915219 329.882093 
L 111.956819 333.365755 
L 112.477619 333.116914 
L 112.998419 330.877429 
L 113.519219 331.375109 
L 114.040019 329.633279 
L 114.560819 325.154307 
L 115.081619 324.158971 
L 115.602419 326.149617 
L 116.123219 321.17299 
L 116.644019 322.665981 
L 117.164818 322.665981 
L 117.685618 323.163636 
L 118.206418 324.905467 
L 119.248018 329.384438 
L 119.768818 333.365755 
L 120.289618 331.375109 
L 120.810418 333.86341 
L 121.331218 334.11225 
L 122.372818 336.849391 
L 122.893618 336.849391 
L 123.414418 337.347071 
L 123.935218 336.102895 
L 124.456018 336.102895 
L 124.976818 337.595886 
L 125.497618 335.3564 
L 126.018418 332.370419 
L 126.539218 330.130933 
L 127.060018 330.628588 
L 127.580818 328.389103 
L 128.101618 325.651962 
L 129.143218 323.163636 
L 129.664018 323.412476 
L 130.184818 324.905467 
L 130.705618 325.900802 
L 131.226418 326.398457 
L 131.747218 327.144952 
L 132.788818 327.144952 
L 133.309618 326.647298 
L 133.830418 325.900802 
L 134.351218 326.398457 
L 134.872018 326.398457 
L 135.392818 326.149617 
L 135.913618 327.144952 
L 136.434418 326.398457 
L 136.955218 323.910131 
L 137.476018 323.412476 
L 139.559218 310.224376 
L 140.080018 307.487236 
L 140.600818 303.754734 
L 141.121618 302.261743 
L 142.163218 295.045631 
L 142.684018 290.815474 
L 143.204818 289.322484 
L 143.725618 284.345857 
L 144.246418 280.613355 
L 144.767218 287.082998 
L 145.288018 274.143738 
L 145.808818 265.68345 
L 146.329618 273.894898 
L 146.850418 270.908917 
L 147.371218 268.918272 
L 147.892018 262.697469 
L 148.412818 248.016379 
L 148.933618 249.011715 
L 149.454418 251.748855 
L 149.975218 243.039727 
L 151.537618 224.875001 
L 152.058418 222.386675 
L 152.579217 218.405358 
L 153.100017 218.405358 
L 153.620817 212.682236 
L 154.141617 210.691565 
L 154.662417 206.959089 
L 155.183217 207.705584 
L 155.704017 208.203265 
L 156.224817 209.94507 
L 156.745617 207.954425 
L 157.266417 207.954425 
L 157.787217 208.70092 
L 158.308017 207.207929 
L 158.828817 198.498801 
L 159.349617 197.752306 
L 159.870417 193.770989 
L 160.391217 186.306037 
L 160.912017 186.306037 
L 161.432817 184.564206 
L 161.953617 179.836394 
L 162.474417 179.338739 
L 162.995217 178.094589 
L 163.516017 177.348094 
L 164.036817 177.099253 
L 164.557617 173.864432 
L 165.078417 173.615592 
L 165.599217 174.362087 
L 166.120017 173.615592 
L 166.640817 175.357423 
L 167.161617 173.615592 
L 167.682417 173.117937 
L 168.203217 171.127291 
L 168.724017 172.371442 
L 169.244817 173.117937 
L 169.765617 170.878451 
L 170.286417 169.883115 
L 170.807217 173.117937 
L 171.328017 171.873787 
L 171.848817 172.371442 
L 172.369617 172.371442 
L 172.890417 171.873787 
L 173.411217 170.629611 
L 173.932017 171.873787 
L 174.452817 170.380796 
L 174.973617 170.629611 
L 175.494417 169.13662 
L 176.015217 169.634301 
L 176.536017 166.39948 
L 177.056817 167.394815 
L 177.577617 166.39948 
L 178.098417 165.155304 
L 179.140017 161.920508 
L 179.660817 160.427518 
L 180.181617 161.920508 
L 180.702417 161.174013 
L 181.223217 161.671668 
L 181.744017 159.929837 
L 182.264817 161.174013 
L 183.306417 156.695028 
L 184.348017 150.474226 
L 184.868817 146.49291 
L 185.910417 141.51627 
L 186.431217 139.276785 
L 187.472817 136.041976 
L 187.993616 135.793136 
L 188.514416 135.793136 
L 189.035216 134.797813 
L 190.076816 135.295468 
L 190.597616 136.041976 
L 191.118416 135.046641 
L 191.639216 135.295468 
L 192.160016 133.55365 
L 193.201616 129.074679 
L 193.722416 124.346867 
L 194.243216 122.853876 
L 195.284816 112.154102 
L 195.805616 109.416949 
L 196.326416 105.68446 
L 196.847216 104.44031 
L 197.368016 101.205488 
L 197.888816 101.454316 
L 198.409616 100.458993 
L 198.930416 98.717162 
L 199.451216 97.72184 
L 199.972016 96.477677 
L 201.013616 92.247533 
L 201.534416 90.008047 
L 202.055216 91.003382 
L 202.576016 92.247533 
L 203.096816 92.994028 
L 203.617616 92.7452 
L 204.138416 93.242868 
L 204.659216 94.735859 
L 205.180016 94.735859 
L 205.700816 93.491696 
L 206.221616 91.749878 
L 206.742416 92.247533 
L 207.263216 90.754542 
L 207.784016 87.768561 
L 208.304816 86.524385 
L 208.825616 84.284925 
L 209.346416 83.28959 
L 209.867216 80.801264 
L 210.388016 77.566442 
L 210.908816 76.322292 
L 211.429616 75.575797 
L 211.950416 72.83863 
L 212.471216 71.34564 
L 212.992016 70.59917 
L 213.512816 68.608499 
L 214.033616 67.862004 
L 214.554416 67.613164 
L 215.596016 70.35033 
L 216.116816 71.59448 
L 216.637616 73.585151 
L 217.679216 80.303583 
L 218.200016 81.547759 
L 218.720816 84.53374 
L 219.241616 88.266229 
L 219.762416 89.759219 
L 220.283216 90.754542 
L 220.804016 91.501037 
L 221.324816 93.242868 
L 221.845616 92.496373 
L 222.366416 90.754542 
L 222.887216 90.754542 
L 223.408015 90.256874 
L 223.928815 89.510379 
L 224.449615 88.017389 
L 224.970415 89.012724 
L 225.491215 89.012724 
L 226.012015 90.754542 
L 226.532815 90.505715 
L 227.053615 91.003382 
L 227.574415 92.994028 
L 228.095215 92.994028 
L 228.616015 93.740523 
L 229.136815 93.989363 
L 229.657615 94.984686 
L 230.178415 94.984686 
L 230.699215 93.740523 
L 231.220015 93.242868 
L 231.740815 93.242868 
L 232.261615 91.998705 
L 233.303215 87.768561 
L 233.824015 89.012724 
L 234.344815 88.515056 
L 234.865615 87.022066 
L 235.386415 87.270893 
L 235.907215 89.759219 
L 236.428015 89.759219 
L 236.948815 89.261552 
L 237.469615 89.261552 
L 237.990415 89.759219 
L 238.511215 91.25221 
L 240.594415 99.21483 
L 241.115215 99.46367 
L 241.636015 100.956661 
L 242.156815 100.707821 
L 242.677615 100.956661 
L 243.198415 98.468335 
L 243.719215 99.961325 
L 244.240015 99.961325 
L 244.760815 100.707821 
L 245.281615 100.707821 
L 246.323215 103.196147 
L 247.885615 110.163444 
L 249.448015 116.633074 
L 249.968815 118.374892 
L 251.010415 123.351531 
L 251.531215 127.332848 
L 253.093615 136.041976 
L 253.614415 137.534967 
L 254.135215 138.281462 
L 254.656015 138.779117 
L 255.176815 138.281462 
L 255.697615 139.027957 
L 256.218415 140.27212 
L 256.739215 140.769775 
L 257.260015 142.262766 
L 257.780815 142.262766 
L 258.301615 144.004596 
L 258.822414 144.751092 
L 259.343214 146.244082 
L 259.864014 146.74175 
L 260.384814 147.737073 
L 260.905614 149.727731 
L 261.426414 150.723054 
L 261.947214 152.464884 
L 262.468014 155.699693 
L 262.988814 157.441511 
L 263.509614 158.436846 
L 264.030414 157.939192 
L 264.551214 159.432182 
L 265.072014 158.685687 
L 265.592814 159.432182 
L 266.113614 157.441511 
L 266.634414 158.188006 
L 267.155214 157.690351 
L 267.676014 159.432182 
L 268.196814 158.934527 
L 268.717614 160.178677 
L 269.238414 160.178677 
L 269.759214 161.422827 
L 270.280014 162.169323 
L 270.800814 163.911153 
L 271.321614 164.906489 
L 271.842414 166.897134 
L 272.363214 167.64363 
L 273.404814 176.601598 
L 273.925614 179.587579 
L 274.446414 181.329384 
L 274.967214 184.813046 
L 275.488014 185.559541 
L 276.008814 186.554877 
L 276.529614 188.047867 
L 277.050414 187.052532 
L 277.571214 187.799027 
L 278.612814 186.803692 
L 280.175214 183.071215 
L 280.696014 183.320056 
L 281.216814 184.564206 
L 281.737614 184.315391 
L 282.258414 184.813046 
L 282.779214 186.057196 
L 283.300014 186.803692 
L 283.820814 189.292018 
L 284.341614 193.024494 
L 284.862414 194.766325 
L 285.383214 198.249961 
L 285.904014 199.245296 
L 286.424814 200.987127 
L 287.466414 206.710249 
L 287.987214 206.959089 
L 288.508014 209.696255 
L 289.028814 209.198575 
L 289.549614 211.935741 
L 290.070414 212.184556 
L 290.591214 212.682236 
L 291.112014 212.184556 
L 291.632814 213.677546 
L 292.153614 212.433396 
L 292.674414 211.935741 
L 293.195214 211.935741 
L 293.716014 211.189246 
L 294.236813 209.94507 
L 294.757613 211.189246 
L 295.278413 207.954425 
L 295.799213 209.696255 
L 296.320013 209.447415 
L 296.840813 210.19391 
L 297.361613 211.686901 
L 297.882413 214.921722 
L 298.403213 216.663553 
L 299.444813 222.386675 
L 299.965613 223.630825 
L 300.486413 222.137834 
L 301.007213 221.640179 
L 301.528013 219.649534 
L 302.048813 218.903039 
L 302.569613 217.658863 
L 303.611213 213.428732 
L 304.132013 211.935741 
L 304.652813 208.452079 
L 306.215213 202.977772 
L 306.736013 203.724268 
L 307.256813 206.212594 
L 307.777613 206.959089 
L 308.298413 209.94507 
L 308.819213 210.442751 
L 309.340013 211.43806 
L 309.860813 213.677546 
L 310.381613 216.663553 
L 310.902413 217.907703 
L 311.944013 221.142524 
L 312.464813 224.875001 
L 313.506413 228.607477 
L 314.548013 233.086448 
L 315.068813 232.588793 
L 315.589613 230.598122 
L 316.631213 228.109822 
L 317.152013 223.879665 
L 317.672813 223.38201 
L 318.193613 223.38201 
L 318.714413 223.13317 
L 319.235213 222.635515 
L 319.756013 224.377346 
L 320.276813 225.372656 
L 320.797613 228.358637 
L 321.318413 229.353972 
L 321.839213 231.593458 
L 322.880813 233.832944 
L 323.401613 234.330624 
L 324.443213 239.556091 
L 324.964013 240.302586 
L 325.484813 239.307251 
L 326.005613 240.302586 
L 326.526413 238.560755 
L 327.047213 237.56542 
L 327.568013 234.828279 
L 328.088813 233.832944 
L 328.609613 231.095803 
L 329.130413 230.100467 
L 329.651212 228.358637 
L 330.692812 225.870336 
L 331.213612 227.114486 
L 331.734412 227.612141 
L 332.255212 228.358637 
L 332.776012 228.856317 
L 333.817612 231.344618 
L 334.338412 233.335289 
L 334.859212 233.584129 
L 335.380012 235.07712 
L 335.900812 233.832944 
L 336.421612 233.584129 
L 336.942412 232.588793 
L 337.463212 231.344618 
L 337.984012 227.860982 
L 338.504812 226.119151 
L 339.025612 223.630825 
L 341.108812 210.442751 
L 341.629612 208.70092 
L 342.150412 204.968444 
L 343.192012 204.470763 
L 344.233612 209.198575 
L 344.754412 211.935741 
L 345.796012 219.400694 
L 346.316812 221.391339 
L 346.837612 225.372656 
L 347.358412 228.109822 
L 347.879212 229.602812 
L 348.400012 231.593458 
L 349.441612 233.832944 
L 349.962412 234.579439 
L 350.483212 234.081784 
L 351.004012 236.57011 
L 352.045612 238.063101 
L 352.566412 238.560755 
L 354.649612 243.537408 
L 355.170412 246.523389 
L 355.691212 248.762874 
L 357.253612 258.467313 
L 358.295212 264.936955 
L 358.816012 263.692779 
L 359.336812 262.946284 
L 359.857612 263.94162 
L 360.378412 265.18577 
L 360.899212 264.688115 
L 361.420012 265.68345 
L 361.940812 265.932291 
L 362.461612 267.922936 
L 362.982412 268.918272 
L 363.503212 268.918272 
L 364.024012 268.420591 
L 364.544812 268.171776 
L 366.107211 260.209143 
L 366.628011 259.462648 
L 367.148811 256.974322 
L 368.190411 255.481332 
L 368.711211 255.481332 
L 369.232011 257.720817 
L 369.752811 258.964993 
L 370.273611 258.964993 
L 370.794411 261.950974 
L 371.315211 263.195124 
L 372.356811 267.176441 
L 372.877611 271.655412 
L 374.960811 276.383224 
L 375.481611 276.134384 
L 376.002411 274.143738 
L 376.523211 272.650748 
L 377.044011 271.655412 
L 377.564811 268.669431 
L 378.085611 266.678786 
L 378.606411 263.195124 
L 379.127211 262.946284 
L 379.648011 260.457984 
L 380.168811 260.706798 
L 380.689611 261.204479 
L 381.210411 264.688115 
L 381.731211 266.181105 
L 383.293611 278.87155 
L 383.814411 281.857531 
L 384.335211 283.848177 
L 384.856011 286.834158 
L 385.376811 288.078334 
L 385.897611 287.331838 
L 386.418411 288.078334 
L 386.939211 286.834158 
L 388.501611 280.1157 
L 389.022411 278.37387 
L 389.543211 278.125055 
L 390.064011 276.383224 
L 391.105611 276.383224 
L 391.626411 278.62271 
L 392.147211 279.369205 
L 392.668011 279.369205 
L 393.188811 278.62271 
L 393.709611 278.87155 
L 394.230411 277.627374 
L 394.751211 277.37856 
L 395.272011 274.890234 
L 395.792811 274.143738 
L 396.313611 272.650748 
L 396.834411 271.904253 
L 397.355211 270.908917 
L 397.876011 271.157757 
L 398.396811 269.913582 
L 399.438411 266.181105 
L 399.959211 266.181105 
L 400.48001 263.195124 
L 401.00081 262.448629 
L 401.52161 260.706798 
L 402.04241 261.204479 
L 402.56321 257.969658 
L 403.08401 258.964993 
L 403.60481 256.476667 
L 404.12561 255.978986 
L 404.64641 254.734836 
L 405.16721 255.481332 
L 405.68801 255.481332 
L 406.20881 257.472003 
L 406.72961 258.467313 
L 408.81281 268.420591 
L 409.85441 271.655412 
L 410.37521 272.401908 
L 410.89601 274.143738 
L 411.41681 274.641393 
L 412.45841 271.904253 
L 412.97921 269.913582 
L 413.50001 264.936955 
L 414.02081 263.195124 
L 415.06241 257.720817 
L 415.58321 257.969658 
L 416.10401 255.481332 
L 416.62481 257.223162 
L 417.14561 258.467313 
L 419.22881 270.162422 
L 419.74961 272.401908 
L 420.27041 273.148403 
L 420.79121 275.636729 
L 421.31201 275.636729 
L 421.83281 277.876215 
L 422.35361 278.125055 
L 422.87441 279.618046 
L 423.39521 281.608691 
L 424.95761 286.087662 
L 425.47841 284.843512 
L 426.52001 288.078334 
L 427.56161 290.068979 
L 428.08241 289.073643 
L 428.60321 288.824829 
L 429.12401 291.064315 
L 429.64481 290.317819 
L 430.16561 290.56666 
L 431.20721 294.050296 
L 431.72801 292.308465 
L 432.24881 293.05496 
L 432.76961 291.81081 
L 433.29041 291.81081 
L 433.81121 291.561969 
L 434.33201 290.815474 
L 434.85281 290.56666 
L 435.37361 291.561969 
L 435.894409 290.815474 
L 436.415209 292.05965 
L 436.936009 292.557305 
L 437.456809 293.552641 
L 437.977609 292.806145 
L 438.498409 291.313155 
L 439.019209 290.815474 
L 439.540009 289.820139 
L 440.581609 285.092353 
L 441.623209 281.359851 
L 443.185609 273.646084 
L 443.706409 272.401908 
L 444.227209 271.904253 
L 444.748009 271.157757 
L 445.268809 269.167086 
L 445.789609 269.913582 
L 446.310409 268.669431 
L 446.831209 268.171776 
L 447.352009 268.420591 
L 447.872809 269.415927 
L 448.393609 269.415927 
L 448.914409 270.660077 
L 449.435209 269.913582 
L 449.956009 270.660077 
L 450.476809 270.908917 
L 450.997609 271.406572 
L 451.518409 270.908917 
L 452.039209 273.397243 
L 452.560009 274.392579 
L 453.080809 276.632065 
L 453.601609 277.37856 
L 453.601609 277.37856 
" style="fill:none;stroke:#808080;stroke-linecap:square;"/>
   </g>
   <g id="line2d_2">
    <path clip-path="url(#pf8340b7136)" d="M 62.48082 319.777966 
L 70.29282 319.801384 
L 72.89682 319.998178 
L 74.45922 320.0141 
L 81.75042 319.877674 
L 83.833619 319.755729 
L 90.083219 319.722189 
L 93.208019 319.468176 
L 95.291219 319.378153 
L 97.374419 319.587458 
L 101.020019 319.9178 
L 101.540819 320.058373 
L 103.624019 320.076533 
L 104.665619 320.119723 
L 105.707219 320.005311 
L 107.790419 320.140809 
L 112.998419 320.102314 
L 116.123219 319.853382 
L 120.810418 319.633167 
L 126.539218 319.669224 
L 129.664018 318.928559 
L 131.747218 318.041303 
L 132.788818 317.33763 
L 133.830418 316.295826 
L 134.872018 314.756982 
L 135.913618 312.68943 
L 136.955218 310.036586 
L 137.996818 306.794874 
L 139.559218 300.918329 
L 141.121618 293.914857 
L 143.204818 283.11561 
L 145.808818 267.719318 
L 151.537618 232.63614 
L 153.620817 221.018185 
L 155.704017 210.236241 
L 158.308017 198.556827 
L 159.870417 192.279842 
L 161.432817 186.593199 
L 162.995217 181.537944 
L 164.557617 177.07147 
L 166.120017 173.108226 
L 167.682417 169.832121 
L 169.244817 167.112086 
L 171.328017 164.221382 
L 172.890417 162.545467 
L 174.452817 161.144124 
L 176.015217 160.123218 
L 177.577617 159.33487 
L 179.660817 158.343657 
L 180.702417 157.650589 
L 181.744017 156.625765 
L 182.785617 155.197976 
L 183.827217 153.361668 
L 185.389617 149.974693 
L 186.952017 145.932818 
L 188.514416 141.15019 
L 190.597616 133.753444 
L 193.722416 121.405695 
L 197.368016 106.734752 
L 199.451216 99.431809 
L 201.534416 92.961022 
L 203.096816 88.809588 
L 204.659216 85.161787 
L 206.221616 81.970552 
L 207.784016 79.248303 
L 209.346416 76.962627 
L 210.908816 75.329715 
L 211.950416 74.568174 
L 212.992016 74.072076 
L 214.033616 73.831944 
L 215.075216 73.750228 
L 216.637616 73.913951 
L 218.200016 74.238474 
L 219.241616 74.617977 
L 220.804016 75.531996 
L 222.366416 76.771393 
L 223.928815 78.415865 
L 226.012015 81.078846 
L 230.178415 87.193725 
L 232.782415 91.470687 
L 234.865615 95.385025 
L 237.990415 101.807055 
L 242.677615 111.839051 
L 246.323215 119.375925 
L 249.448015 126.224211 
L 252.572815 132.971712 
L 264.551214 156.943512 
L 272.363214 170.657243 
L 277.571214 179.237923 
L 280.696014 184.12675 
L 287.987214 194.708737 
L 291.112014 198.817384 
L 295.799213 204.580243 
L 298.403213 207.738899 
L 302.569613 212.174335 
L 310.381613 220.166352 
L 316.110413 225.634725 
L 319.756013 228.607774 
L 323.401613 231.659001 
L 328.609613 236.041603 
L 331.213612 237.876203 
L 333.296812 239.290077 
L 340.588012 244.591737 
L 345.796012 247.849049 
L 348.920812 249.646725 
L 353.608012 252.041944 
L 356.212012 253.470977 
L 362.461612 256.950636 
L 365.586411 258.158123 
L 367.148811 258.834112 
L 373.919211 262.176602 
L 378.085611 263.870016 
L 382.772811 265.665262 
L 386.418411 267.340857 
L 387.980811 268.040763 
L 399.438411 271.987634 
L 402.56321 272.934064 
L 406.20881 274.185488 
L 410.37521 275.257671 
L 412.97921 275.753743 
L 414.54161 276.267135 
L 418.70801 277.848066 
L 420.79121 278.536458 
L 426.52001 279.980044 
L 429.12401 280.503499 
L 433.81121 281.795151 
L 435.37361 282.207086 
L 437.977609 282.801436 
L 440.581609 283.546881 
L 444.227209 284.681635 
L 450.476809 285.757819 
L 453.601609 286.685959 
L 453.601609 286.685959 
" style="fill:none;stroke:#000000;stroke-linecap:square;"/>
   </g>
   <g id="line2d_3">
    <path clip-path="url(#pf8340b7136)" d="M 62.48082 319.638846 
L 66.12642 319.627941 
L 70.81362 319.594776 
L 79.66722 319.738612 
L 84.875219 319.649668 
L 89.562419 319.762931 
L 95.812019 319.573693 
L 96.853619 319.737085 
L 97.895219 319.741536 
L 98.936819 319.911294 
L 100.499219 320.016052 
L 102.061619 320.293141 
L 103.103219 320.260047 
L 104.665619 320.371655 
L 105.707219 320.234376 
L 107.269619 320.314914 
L 108.832019 320.209329 
L 111.436019 320.237034 
L 121.852018 319.527791 
L 126.539218 319.620716 
L 129.664018 318.978426 
L 131.226418 318.365246 
L 132.268018 317.722206 
L 133.309618 316.81209 
L 134.351218 315.506446 
L 135.392818 313.73299 
L 136.434418 311.369758 
L 137.476018 308.458698 
L 138.517618 304.995491 
L 140.080018 298.838945 
L 141.642418 291.483495 
L 143.725618 280.098701 
L 146.329618 264.263266 
L 151.537618 232.05357 
L 154.141617 217.680401 
L 156.224817 207.317627 
L 158.308017 198.080473 
L 160.391217 189.95584 
L 162.474417 182.931634 
L 164.036817 178.361433 
L 165.599217 174.343312 
L 167.161617 170.946097 
L 168.724017 168.085233 
L 170.286417 165.641302 
L 171.328017 164.23528 
L 172.890417 162.565736 
L 174.452817 161.361212 
L 175.494417 160.791006 
L 176.536017 160.453716 
L 177.577617 160.282777 
L 179.140017 160.338194 
L 180.702417 160.699532 
L 183.306417 161.616046 
L 184.868817 162.44813 
L 186.431217 163.589005 
L 188.514416 165.632068 
L 191.118416 168.659283 
L 194.243216 172.726005 
L 198.930416 179.052937 
L 215.075216 202.707905 
L 217.679216 206.510857 
L 221.324816 211.297152 
L 227.574415 219.199537 
L 231.740815 224.074536 
L 239.032015 231.983889 
L 241.636015 234.645529 
L 245.281615 237.917696 
L 249.448015 241.74393 
L 252.572815 244.528965 
L 259.864014 250.2865 
L 263.509614 252.889814 
L 268.717614 256.33731 
L 280.696014 263.838325 
L 290.591214 269.161744 
L 293.195214 270.376826 
L 302.569613 274.271178 
L 309.860813 277.008874 
L 316.631213 279.615673 
L 323.922413 281.751197 
L 327.047213 282.796204 
L 331.213612 283.902111 
L 333.296812 284.37075 
L 336.942412 285.401312 
L 342.150412 286.920225 
L 347.879212 288.40863 
L 357.774412 290.458073 
L 361.420012 291.274611 
L 364.024012 291.697328 
L 366.628011 292.088801 
L 372.877611 293.5404 
L 375.481611 293.947809 
L 389.022411 296.390026 
L 394.230411 297.073486 
L 406.20881 298.839578 
L 412.45841 299.380399 
L 415.06241 299.656328 
L 418.18721 300.206172 
L 420.79121 300.742627 
L 427.04081 301.307736 
L 429.12401 301.472863 
L 439.540009 302.716607 
L 444.748009 303.542837 
L 448.393609 303.699343 
L 450.476809 303.8563 
L 453.601609 304.447443 
L 453.601609 304.447443 
" style="fill:none;stroke:#0000ff;stroke-linecap:square;"/>
   </g>
   <g id="line2d_4">
    <path clip-path="url(#pf8340b7136)" d="M 62.48082 319.81912 
L 67.16802 319.742066 
L 69.77202 319.844465 
L 73.41762 319.976382 
L 77.58402 319.846258 
L 83.833619 319.832627 
L 88.520819 319.670472 
L 93.728819 319.584824 
L 104.665619 319.428068 
L 114.040019 319.620804 
L 118.727218 319.647105 
L 122.893618 319.802156 
L 127.060018 319.713408 
L 130.705618 319.617755 
L 134.872018 319.75467 
L 138.517618 319.65167 
L 140.080018 319.562226 
L 142.163218 319.533696 
L 143.725618 319.724153 
L 144.767218 319.752823 
L 145.808818 319.872619 
L 147.371218 319.967309 
L 148.412818 320.218001 
L 149.975218 320.1886 
L 151.537618 320.26257 
L 152.579217 320.154102 
L 154.141617 320.20741 
L 155.704017 320.128771 
L 157.787217 320.155163 
L 159.870417 320.079393 
L 163.516017 319.843263 
L 168.724017 319.543977 
L 172.890417 319.659732 
L 174.973617 319.399634 
L 176.015217 319.205269 
L 178.098417 318.518553 
L 179.140017 317.955344 
L 180.181617 317.151905 
L 181.223217 316.001027 
L 182.264817 314.449064 
L 183.306417 312.391652 
L 184.348017 309.860813 
L 185.389617 306.862434 
L 186.952017 301.544543 
L 188.514416 295.198122 
L 190.597616 285.411953 
L 193.201616 271.842555 
L 198.409616 244.34452 
L 201.013616 232.09402 
L 203.096816 223.278562 
L 205.180016 215.416523 
L 207.263216 208.514719 
L 209.346416 202.545704 
L 210.908816 198.667416 
L 212.471216 195.260743 
L 214.033616 192.379968 
L 215.596016 189.957155 
L 217.158416 187.882124 
L 218.720816 186.184114 
L 220.283216 184.924211 
L 221.845616 184.025937 
L 222.887216 183.65886 
L 224.449615 183.405206 
L 226.012015 183.470734 
L 227.574415 183.792495 
L 230.178415 184.585007 
L 231.740815 185.310361 
L 233.303215 186.305166 
L 235.386415 188.066689 
L 237.990415 190.663473 
L 241.636015 194.732331 
L 246.323215 200.210509 
L 249.448015 204.160281 
L 253.093615 208.751361 
L 258.822414 215.700861 
L 264.551214 223.033489 
L 268.717614 227.694213 
L 275.488014 234.943662 
L 281.216814 240.44995 
L 287.466414 246.174692 
L 289.549614 247.882064 
L 299.965613 255.851425 
L 308.819213 261.701507 
L 311.944013 263.506492 
L 323.401613 269.760888 
L 329.651212 272.963499 
L 339.025612 277.173343 
L 345.796012 279.687533 
L 357.774412 283.577382 
L 362.982412 285.314974 
L 367.148811 286.296987 
L 370.273611 287.127439 
L 374.960811 288.428927 
L 377.044011 288.892483 
L 380.168811 289.515601 
L 383.293611 290.257722 
L 389.022411 291.69359 
L 394.751211 292.964611 
L 399.438411 293.793947 
L 410.37521 295.703743 
L 414.02081 296.220369 
L 418.18721 297.105145 
L 421.83281 297.626888 
L 424.95761 298.122457 
L 429.64481 298.786916 
L 433.29041 299.386275 
L 435.37361 299.724414 
L 442.144009 300.51604 
L 444.748009 300.901322 
L 448.914409 301.362395 
L 453.601609 301.918516 
L 453.601609 301.918516 
" style="fill:none;stroke:#ff0000;stroke-linecap:square;"/>
   </g>
   <g id="patch_3">
    <path d="M 63 43.2 
L 453.6 43.2 
" style="fill:none;stroke:#000000;stroke-linecap:square;stroke-linejoin:miter;"/>
   </g>
   <g id="patch_4">
    <path d="M 453.6 388.8 
L 453.6 43.2 
" style="fill:none;stroke:#000000;stroke-linecap:square;stroke-linejoin:miter;"/>
   </g>
   <g id="patch_5">
    <path d="M 63 388.8 
L 453.6 388.8 
" style="fill:none;stroke:#000000;stroke-linecap:square;stroke-linejoin:miter;"/>
   </g>
   <g id="patch_6">
    <path d="M 63 388.8 
L 63 43.2 
" style="fill:none;stroke:#000000;stroke-linecap:square;stroke-linejoin:miter;"/>
   </g>
   <g id="matplotlib.axis_1">
    <g id="xtick_1">
     <g id="line2d_5">
      <defs>
       <path d="M 0 0 
L 0 -4 
" id="me786abdfbd" style="stroke:#000000;stroke-width:0.5;"/>
      </defs>
      <g>
       <use style="stroke:#000000;stroke-width:0.5;" x="63.0" xlink:href="#me786abdfbd" y="388.8"/>
      </g>
     </g>
     <g id="line2d_6">
      <defs>
       <path d="M 0 0 
L 0 4 
" id="m06dc57e619" style="stroke:#000000;stroke-width:0.5;"/>
      </defs>
      <g>
       <use style="stroke:#000000;stroke-width:0.5;" x="63.0" xlink:href="#m06dc57e619" y="43.2"/>
      </g>
     </g>
     <g id="text_1">
      <!-- 0.0 -->
      <defs>
       <path d="M 31.78125 66.40625 
Q 24.171875 66.40625 20.328125 58.90625 
Q 16.5 51.421875 16.5 36.375 
Q 16.5 21.390625 20.328125 13.890625 
Q 24.171875 6.390625 31.78125 6.390625 
Q 39.453125 6.390625 43.28125 13.890625 
Q 47.125 21.390625 47.125 36.375 
Q 47.125 51.421875 43.28125 58.90625 
Q 39.453125 66.40625 31.78125 66.40625 
M 31.78125 74.21875 
Q 44.046875 74.21875 50.515625 64.515625 
Q 56.984375 54.828125 56.984375 36.375 
Q 56.984375 17.96875 50.515625 8.265625 
Q 44.046875 -1.421875 31.78125 -1.421875 
Q 19.53125 -1.421875 13.0625 8.265625 
Q 6.59375 17.96875 6.59375 36.375 
Q 6.59375 54.828125 13.0625 64.515625 
Q 19.53125 74.21875 31.78125 74.21875 
" id="BitstreamVeraSans-Roman-30"/>
       <path d="M 10.6875 12.40625 
L 21 12.40625 
L 21 0 
L 10.6875 0 
z
" id="BitstreamVeraSans-Roman-2e"/>
      </defs>
      <g transform="translate(50.2775 404.9575)scale(0.16 -0.16)">
       <use xlink:href="#BitstreamVeraSans-Roman-30"/>
       <use x="63.623046875" xlink:href="#BitstreamVeraSans-Roman-2e"/>
       <use x="95.41015625" xlink:href="#BitstreamVeraSans-Roman-30"/>
      </g>
     </g>
    </g>
    <g id="xtick_2">
     <g id="line2d_7">
      <g>
       <use style="stroke:#000000;stroke-width:0.5;" x="115.08" xlink:href="#me786abdfbd" y="388.8"/>
      </g>
     </g>
     <g id="line2d_8">
      <g>
       <use style="stroke:#000000;stroke-width:0.5;" x="115.08" xlink:href="#m06dc57e619" y="43.2"/>
      </g>
     </g>
     <g id="text_2">
      <!-- 0.2 -->
      <defs>
       <path d="M 19.1875 8.296875 
L 53.609375 8.296875 
L 53.609375 0 
L 7.328125 0 
L 7.328125 8.296875 
Q 12.9375 14.109375 22.625 23.890625 
Q 32.328125 33.6875 34.8125 36.53125 
Q 39.546875 41.84375 41.421875 45.53125 
Q 43.3125 49.21875 43.3125 52.78125 
Q 43.3125 58.59375 39.234375 62.25 
Q 35.15625 65.921875 28.609375 65.921875 
Q 23.96875 65.921875 18.8125 64.3125 
Q 13.671875 62.703125 7.8125 59.421875 
L 7.8125 69.390625 
Q 13.765625 71.78125 18.9375 73 
Q 24.125 74.21875 28.421875 74.21875 
Q 39.75 74.21875 46.484375 68.546875 
Q 53.21875 62.890625 53.21875 53.421875 
Q 53.21875 48.921875 51.53125 44.890625 
Q 49.859375 40.875 45.40625 35.40625 
Q 44.1875 33.984375 37.640625 27.21875 
Q 31.109375 20.453125 19.1875 8.296875 
" id="BitstreamVeraSans-Roman-32"/>
      </defs>
      <g transform="translate(102.3575 404.9575)scale(0.16 -0.16)">
       <use xlink:href="#BitstreamVeraSans-Roman-30"/>
       <use x="63.623046875" xlink:href="#BitstreamVeraSans-Roman-2e"/>
       <use x="95.41015625" xlink:href="#BitstreamVeraSans-Roman-32"/>
      </g>
     </g>
    </g>
    <g id="xtick_3">
     <g id="line2d_9">
      <g>
       <use style="stroke:#000000;stroke-width:0.5;" x="167.16" xlink:href="#me786abdfbd" y="388.8"/>
      </g>
     </g>
     <g id="line2d_10">
      <g>
       <use style="stroke:#000000;stroke-width:0.5;" x="167.16" xlink:href="#m06dc57e619" y="43.2"/>
      </g>
     </g>
     <g id="text_3">
      <!-- 0.4 -->
      <defs>
       <path d="M 37.796875 64.3125 
L 12.890625 25.390625 
L 37.796875 25.390625 
z
M 35.203125 72.90625 
L 47.609375 72.90625 
L 47.609375 25.390625 
L 58.015625 25.390625 
L 58.015625 17.1875 
L 47.609375 17.1875 
L 47.609375 0 
L 37.796875 0 
L 37.796875 17.1875 
L 4.890625 17.1875 
L 4.890625 26.703125 
z
" id="BitstreamVeraSans-Roman-34"/>
      </defs>
      <g transform="translate(154.4375 404.9575)scale(0.16 -0.16)">
       <use xlink:href="#BitstreamVeraSans-Roman-30"/>
       <use x="63.623046875" xlink:href="#BitstreamVeraSans-Roman-2e"/>
       <use x="95.41015625" xlink:href="#BitstreamVeraSans-Roman-34"/>
      </g>
     </g>
    </g>
    <g id="xtick_4">
     <g id="line2d_11">
      <g>
       <use style="stroke:#000000;stroke-width:0.5;" x="219.24" xlink:href="#me786abdfbd" y="388.8"/>
      </g>
     </g>
     <g id="line2d_12">
      <g>
       <use style="stroke:#000000;stroke-width:0.5;" x="219.24" xlink:href="#m06dc57e619" y="43.2"/>
      </g>
     </g>
     <g id="text_4">
      <!-- 0.6 -->
      <defs>
       <path d="M 33.015625 40.375 
Q 26.375 40.375 22.484375 35.828125 
Q 18.609375 31.296875 18.609375 23.390625 
Q 18.609375 15.53125 22.484375 10.953125 
Q 26.375 6.390625 33.015625 6.390625 
Q 39.65625 6.390625 43.53125 10.953125 
Q 47.40625 15.53125 47.40625 23.390625 
Q 47.40625 31.296875 43.53125 35.828125 
Q 39.65625 40.375 33.015625 40.375 
M 52.59375 71.296875 
L 52.59375 62.3125 
Q 48.875 64.0625 45.09375 64.984375 
Q 41.3125 65.921875 37.59375 65.921875 
Q 27.828125 65.921875 22.671875 59.328125 
Q 17.53125 52.734375 16.796875 39.40625 
Q 19.671875 43.65625 24.015625 45.921875 
Q 28.375 48.1875 33.59375 48.1875 
Q 44.578125 48.1875 50.953125 41.515625 
Q 57.328125 34.859375 57.328125 23.390625 
Q 57.328125 12.15625 50.6875 5.359375 
Q 44.046875 -1.421875 33.015625 -1.421875 
Q 20.359375 -1.421875 13.671875 8.265625 
Q 6.984375 17.96875 6.984375 36.375 
Q 6.984375 53.65625 15.1875 63.9375 
Q 23.390625 74.21875 37.203125 74.21875 
Q 40.921875 74.21875 44.703125 73.484375 
Q 48.484375 72.75 52.59375 71.296875 
" id="BitstreamVeraSans-Roman-36"/>
      </defs>
      <g transform="translate(206.5175 404.9575)scale(0.16 -0.16)">
       <use xlink:href="#BitstreamVeraSans-Roman-30"/>
       <use x="63.623046875" xlink:href="#BitstreamVeraSans-Roman-2e"/>
       <use x="95.41015625" xlink:href="#BitstreamVeraSans-Roman-36"/>
      </g>
     </g>
    </g>
    <g id="xtick_5">
     <g id="line2d_13">
      <g>
       <use style="stroke:#000000;stroke-width:0.5;" x="271.32" xlink:href="#me786abdfbd" y="388.8"/>
      </g>
     </g>
     <g id="line2d_14">
      <g>
       <use style="stroke:#000000;stroke-width:0.5;" x="271.32" xlink:href="#m06dc57e619" y="43.2"/>
      </g>
     </g>
     <g id="text_5">
      <!-- 0.8 -->
      <defs>
       <path d="M 31.78125 34.625 
Q 24.75 34.625 20.71875 30.859375 
Q 16.703125 27.09375 16.703125 20.515625 
Q 16.703125 13.921875 20.71875 10.15625 
Q 24.75 6.390625 31.78125 6.390625 
Q 38.8125 6.390625 42.859375 10.171875 
Q 46.921875 13.96875 46.921875 20.515625 
Q 46.921875 27.09375 42.890625 30.859375 
Q 38.875 34.625 31.78125 34.625 
M 21.921875 38.8125 
Q 15.578125 40.375 12.03125 44.71875 
Q 8.5 49.078125 8.5 55.328125 
Q 8.5 64.0625 14.71875 69.140625 
Q 20.953125 74.21875 31.78125 74.21875 
Q 42.671875 74.21875 48.875 69.140625 
Q 55.078125 64.0625 55.078125 55.328125 
Q 55.078125 49.078125 51.53125 44.71875 
Q 48 40.375 41.703125 38.8125 
Q 48.828125 37.15625 52.796875 32.3125 
Q 56.78125 27.484375 56.78125 20.515625 
Q 56.78125 9.90625 50.3125 4.234375 
Q 43.84375 -1.421875 31.78125 -1.421875 
Q 19.734375 -1.421875 13.25 4.234375 
Q 6.78125 9.90625 6.78125 20.515625 
Q 6.78125 27.484375 10.78125 32.3125 
Q 14.796875 37.15625 21.921875 38.8125 
M 18.3125 54.390625 
Q 18.3125 48.734375 21.84375 45.5625 
Q 25.390625 42.390625 31.78125 42.390625 
Q 38.140625 42.390625 41.71875 45.5625 
Q 45.3125 48.734375 45.3125 54.390625 
Q 45.3125 60.0625 41.71875 63.234375 
Q 38.140625 66.40625 31.78125 66.40625 
Q 25.390625 66.40625 21.84375 63.234375 
Q 18.3125 60.0625 18.3125 54.390625 
" id="BitstreamVeraSans-Roman-38"/>
      </defs>
      <g transform="translate(258.5975 404.9575)scale(0.16 -0.16)">
       <use xlink:href="#BitstreamVeraSans-Roman-30"/>
       <use x="63.623046875" xlink:href="#BitstreamVeraSans-Roman-2e"/>
       <use x="95.41015625" xlink:href="#BitstreamVeraSans-Roman-38"/>
      </g>
     </g>
    </g>
    <g id="xtick_6">
     <g id="line2d_15">
      <g>
       <use style="stroke:#000000;stroke-width:0.5;" x="323.4" xlink:href="#me786abdfbd" y="388.8"/>
      </g>
     </g>
     <g id="line2d_16">
      <g>
       <use style="stroke:#000000;stroke-width:0.5;" x="323.4" xlink:href="#m06dc57e619" y="43.2"/>
      </g>
     </g>
     <g id="text_6">
      <!-- 1.0 -->
      <defs>
       <path d="M 12.40625 8.296875 
L 28.515625 8.296875 
L 28.515625 63.921875 
L 10.984375 60.40625 
L 10.984375 69.390625 
L 28.421875 72.90625 
L 38.28125 72.90625 
L 38.28125 8.296875 
L 54.390625 8.296875 
L 54.390625 0 
L 12.40625 0 
z
" id="BitstreamVeraSans-Roman-31"/>
      </defs>
      <g transform="translate(310.6775 404.9575)scale(0.16 -0.16)">
       <use xlink:href="#BitstreamVeraSans-Roman-31"/>
       <use x="63.623046875" xlink:href="#BitstreamVeraSans-Roman-2e"/>
       <use x="95.41015625" xlink:href="#BitstreamVeraSans-Roman-30"/>
      </g>
     </g>
    </g>
    <g id="xtick_7">
     <g id="line2d_17">
      <g>
       <use style="stroke:#000000;stroke-width:0.5;" x="375.48" xlink:href="#me786abdfbd" y="388.8"/>
      </g>
     </g>
     <g id="line2d_18">
      <g>
       <use style="stroke:#000000;stroke-width:0.5;" x="375.48" xlink:href="#m06dc57e619" y="43.2"/>
      </g>
     </g>
     <g id="text_7">
      <!-- 1.2 -->
      <g transform="translate(362.7575 404.9575)scale(0.16 -0.16)">
       <use xlink:href="#BitstreamVeraSans-Roman-31"/>
       <use x="63.623046875" xlink:href="#BitstreamVeraSans-Roman-2e"/>
       <use x="95.41015625" xlink:href="#BitstreamVeraSans-Roman-32"/>
      </g>
     </g>
    </g>
    <g id="xtick_8">
     <g id="line2d_19">
      <g>
       <use style="stroke:#000000;stroke-width:0.5;" x="427.56" xlink:href="#me786abdfbd" y="388.8"/>
      </g>
     </g>
     <g id="line2d_20">
      <g>
       <use style="stroke:#000000;stroke-width:0.5;" x="427.56" xlink:href="#m06dc57e619" y="43.2"/>
      </g>
     </g>
     <g id="text_8">
      <!-- 1.4 -->
      <g transform="translate(414.8375 404.9575)scale(0.16 -0.16)">
       <use xlink:href="#BitstreamVeraSans-Roman-31"/>
       <use x="63.623046875" xlink:href="#BitstreamVeraSans-Roman-2e"/>
       <use x="95.41015625" xlink:href="#BitstreamVeraSans-Roman-34"/>
      </g>
     </g>
    </g>
    <g id="text_9">
     <!-- time ($\mu$s) -->
     <defs>
      <path id="BitstreamVeraSans-Roman-20"/>
      <path d="M 8.015625 75.875 
L 15.828125 75.875 
Q 23.140625 64.359375 26.78125 53.3125 
Q 30.421875 42.28125 30.421875 31.390625 
Q 30.421875 20.453125 26.78125 9.375 
Q 23.140625 -1.703125 15.828125 -13.1875 
L 8.015625 -13.1875 
Q 14.5 -2 17.703125 9.0625 
Q 20.90625 20.125 20.90625 31.390625 
Q 20.90625 42.671875 17.703125 53.65625 
Q 14.5 64.65625 8.015625 75.875 
" id="BitstreamVeraSans-Roman-29"/>
      <path d="M 52 44.1875 
Q 55.375 50.25 60.0625 53.125 
Q 64.75 56 71.09375 56 
Q 79.640625 56 84.28125 50.015625 
Q 88.921875 44.046875 88.921875 33.015625 
L 88.921875 0 
L 79.890625 0 
L 79.890625 32.71875 
Q 79.890625 40.578125 77.09375 44.375 
Q 74.3125 48.1875 68.609375 48.1875 
Q 61.625 48.1875 57.5625 43.546875 
Q 53.515625 38.921875 53.515625 30.90625 
L 53.515625 0 
L 44.484375 0 
L 44.484375 32.71875 
Q 44.484375 40.625 41.703125 44.40625 
Q 38.921875 48.1875 33.109375 48.1875 
Q 26.21875 48.1875 22.15625 43.53125 
Q 18.109375 38.875 18.109375 30.90625 
L 18.109375 0 
L 9.078125 0 
L 9.078125 54.6875 
L 18.109375 54.6875 
L 18.109375 46.1875 
Q 21.1875 51.21875 25.484375 53.609375 
Q 29.78125 56 35.6875 56 
Q 41.65625 56 45.828125 52.96875 
Q 50 49.953125 52 44.1875 
" id="BitstreamVeraSans-Roman-6d"/>
      <path d="M 9.421875 54.6875 
L 18.40625 54.6875 
L 18.40625 0 
L 9.421875 0 
z
M 9.421875 75.984375 
L 18.40625 75.984375 
L 18.40625 64.59375 
L 9.421875 64.59375 
z
" id="BitstreamVeraSans-Roman-69"/>
      <path d="M 31 75.875 
Q 24.46875 64.65625 21.28125 53.65625 
Q 18.109375 42.671875 18.109375 31.390625 
Q 18.109375 20.125 21.3125 9.0625 
Q 24.515625 -2 31 -13.1875 
L 23.1875 -13.1875 
Q 15.875 -1.703125 12.234375 9.375 
Q 8.59375 20.453125 8.59375 31.390625 
Q 8.59375 42.28125 12.203125 53.3125 
Q 15.828125 64.359375 23.1875 75.875 
z
" id="BitstreamVeraSans-Roman-28"/>
      <path d="M 56.203125 29.59375 
L 56.203125 25.203125 
L 14.890625 25.203125 
Q 15.484375 15.921875 20.484375 11.0625 
Q 25.484375 6.203125 34.421875 6.203125 
Q 39.59375 6.203125 44.453125 7.46875 
Q 49.3125 8.734375 54.109375 11.28125 
L 54.109375 2.78125 
Q 49.265625 0.734375 44.1875 -0.34375 
Q 39.109375 -1.421875 33.890625 -1.421875 
Q 20.796875 -1.421875 13.15625 6.1875 
Q 5.515625 13.8125 5.515625 26.8125 
Q 5.515625 40.234375 12.765625 48.109375 
Q 20.015625 56 32.328125 56 
Q 43.359375 56 49.78125 48.890625 
Q 56.203125 41.796875 56.203125 29.59375 
M 47.21875 32.234375 
Q 47.125 39.59375 43.09375 43.984375 
Q 39.0625 48.390625 32.421875 48.390625 
Q 24.90625 48.390625 20.390625 44.140625 
Q 15.875 39.890625 15.1875 32.171875 
z
" id="BitstreamVeraSans-Roman-65"/>
      <path d="M 2.78125 -18.796875 
Q 2.78125 -18.21875 2.875 -18.015625 
L 17.578125 41.015625 
Q 18.015625 42.4375 19.15625 43.3125 
Q 20.3125 44.1875 21.78125 44.1875 
Q 23.046875 44.1875 23.921875 43.421875 
Q 24.8125 42.671875 24.8125 41.40625 
Q 24.8125 41.109375 24.78125 40.9375 
Q 24.75 40.765625 24.703125 40.578125 
L 18.796875 17.1875 
Q 17.828125 13.03125 17.828125 10.015625 
Q 17.828125 6.296875 19.578125 3.90625 
Q 21.34375 1.515625 24.90625 1.515625 
Q 32.171875 1.515625 37.703125 10.59375 
Q 37.75 10.6875 37.765625 10.734375 
Q 37.796875 10.796875 37.796875 10.890625 
L 45.015625 39.890625 
Q 45.359375 41.21875 46.578125 42.15625 
Q 47.796875 43.109375 49.21875 43.109375 
Q 50.390625 43.109375 51.296875 42.328125 
Q 52.203125 41.546875 52.203125 40.28125 
Q 52.203125 39.703125 52.09375 39.5 
L 44.921875 10.6875 
Q 44.1875 7.859375 44.1875 5.8125 
Q 44.1875 1.515625 47.125 1.515625 
Q 50.25 1.515625 51.828125 5.375 
Q 53.421875 9.234375 54.59375 14.703125 
Q 54.78125 15.28125 55.421875 15.28125 
L 56.59375 15.28125 
Q 56.984375 15.28125 57.25 14.96875 
Q 57.515625 14.65625 57.515625 14.3125 
Q 55.765625 7.328125 53.6875 3.09375 
Q 51.609375 -1.125 46.921875 -1.125 
Q 43.609375 -1.125 41.046875 0.78125 
Q 38.484375 2.6875 37.703125 5.90625 
Q 35.203125 2.78125 31.859375 0.828125 
Q 28.515625 -1.125 24.8125 -1.125 
Q 18.5625 -1.125 14.984375 1.8125 
L 9.90625 -18.40625 
Q 9.625 -19.828125 8.453125 -20.703125 
Q 7.28125 -21.578125 5.8125 -21.578125 
Q 4.59375 -21.578125 3.6875 -20.8125 
Q 2.78125 -20.0625 2.78125 -18.796875 
" id="Cmmi10-b9"/>
      <path d="M 18.3125 70.21875 
L 18.3125 54.6875 
L 36.8125 54.6875 
L 36.8125 47.703125 
L 18.3125 47.703125 
L 18.3125 18.015625 
Q 18.3125 11.328125 20.140625 9.421875 
Q 21.96875 7.515625 27.59375 7.515625 
L 36.8125 7.515625 
L 36.8125 0 
L 27.59375 0 
Q 17.1875 0 13.234375 3.875 
Q 9.28125 7.765625 9.28125 18.015625 
L 9.28125 47.703125 
L 2.6875 47.703125 
L 2.6875 54.6875 
L 9.28125 54.6875 
L 9.28125 70.21875 
z
" id="BitstreamVeraSans-Roman-74"/>
      <path d="M 44.28125 53.078125 
L 44.28125 44.578125 
Q 40.484375 46.53125 36.375 47.5 
Q 32.28125 48.484375 27.875 48.484375 
Q 21.1875 48.484375 17.84375 46.4375 
Q 14.5 44.390625 14.5 40.28125 
Q 14.5 37.15625 16.890625 35.375 
Q 19.28125 33.59375 26.515625 31.984375 
L 29.59375 31.296875 
Q 39.15625 29.25 43.1875 25.515625 
Q 47.21875 21.78125 47.21875 15.09375 
Q 47.21875 7.46875 41.1875 3.015625 
Q 35.15625 -1.421875 24.609375 -1.421875 
Q 20.21875 -1.421875 15.453125 -0.5625 
Q 10.6875 0.296875 5.421875 2 
L 5.421875 11.28125 
Q 10.40625 8.6875 15.234375 7.390625 
Q 20.0625 6.109375 24.8125 6.109375 
Q 31.15625 6.109375 34.5625 8.28125 
Q 37.984375 10.453125 37.984375 14.40625 
Q 37.984375 18.0625 35.515625 20.015625 
Q 33.0625 21.96875 24.703125 23.78125 
L 21.578125 24.515625 
Q 13.234375 26.265625 9.515625 29.90625 
Q 5.8125 33.546875 5.8125 39.890625 
Q 5.8125 47.609375 11.28125 51.796875 
Q 16.75 56 26.8125 56 
Q 31.78125 56 36.171875 55.265625 
Q 40.578125 54.546875 44.28125 53.078125 
" id="BitstreamVeraSans-Roman-73"/>
     </defs>
     <g transform="translate(222.38 425.445)scale(0.16 -0.16)">
      <use transform="translate(0.0 0.015625)" xlink:href="#BitstreamVeraSans-Roman-74"/>
      <use transform="translate(39.208984375 0.015625)" xlink:href="#BitstreamVeraSans-Roman-69"/>
      <use transform="translate(66.9921875 0.015625)" xlink:href="#BitstreamVeraSans-Roman-6d"/>
      <use transform="translate(164.404296875 0.015625)" xlink:href="#BitstreamVeraSans-Roman-65"/>
      <use transform="translate(225.927734375 0.015625)" xlink:href="#BitstreamVeraSans-Roman-20"/>
      <use transform="translate(257.71484375 0.015625)" xlink:href="#BitstreamVeraSans-Roman-28"/>
      <use transform="translate(296.728515625 0.015625)" xlink:href="#Cmmi10-b9"/>
      <use transform="translate(356.93359375 0.015625)" xlink:href="#BitstreamVeraSans-Roman-73"/>
      <use transform="translate(409.033203125 0.015625)" xlink:href="#BitstreamVeraSans-Roman-29"/>
     </g>
    </g>
   </g>
   <g id="matplotlib.axis_2">
    <g id="ytick_1">
     <g id="line2d_21">
      <defs>
       <path d="M 0 0 
L 4 0 
" id="m5507605074" style="stroke:#000000;stroke-width:0.5;"/>
      </defs>
      <g>
       <use style="stroke:#000000;stroke-width:0.5;" x="63.0" xlink:href="#m5507605074" y="388.8"/>
      </g>
     </g>
     <g id="line2d_22">
      <defs>
       <path d="M 0 0 
L -4 0 
" id="mdea19069bd" style="stroke:#000000;stroke-width:0.5;"/>
      </defs>
      <g>
       <use style="stroke:#000000;stroke-width:0.5;" x="453.6" xlink:href="#mdea19069bd" y="388.8"/>
      </g>
     </g>
     <g id="text_10">
      <!-- −10 -->
      <defs>
       <path d="M 10.59375 35.5 
L 73.1875 35.5 
L 73.1875 27.203125 
L 10.59375 27.203125 
z
" id="BitstreamVeraSans-Roman-2212"/>
      </defs>
      <g transform="translate(25.2325 393.215)scale(0.16 -0.16)">
       <use xlink:href="#BitstreamVeraSans-Roman-2212"/>
       <use x="83.7890625" xlink:href="#BitstreamVeraSans-Roman-31"/>
       <use x="147.412109375" xlink:href="#BitstreamVeraSans-Roman-30"/>
      </g>
     </g>
    </g>
    <g id="ytick_2">
     <g id="line2d_23">
      <g>
       <use style="stroke:#000000;stroke-width:0.5;" x="63.0" xlink:href="#m5507605074" y="319.68"/>
      </g>
     </g>
     <g id="line2d_24">
      <g>
       <use style="stroke:#000000;stroke-width:0.5;" x="453.6" xlink:href="#mdea19069bd" y="319.68"/>
      </g>
     </g>
     <g id="text_11">
      <!-- 0 -->
      <g transform="translate(48.82 324.095)scale(0.16 -0.16)">
       <use xlink:href="#BitstreamVeraSans-Roman-30"/>
      </g>
     </g>
    </g>
    <g id="ytick_3">
     <g id="line2d_25">
      <g>
       <use style="stroke:#000000;stroke-width:0.5;" x="63.0" xlink:href="#m5507605074" y="250.56"/>
      </g>
     </g>
     <g id="line2d_26">
      <g>
       <use style="stroke:#000000;stroke-width:0.5;" x="453.6" xlink:href="#mdea19069bd" y="250.56"/>
      </g>
     </g>
     <g id="text_12">
      <!-- 10 -->
      <g transform="translate(38.64 254.975)scale(0.16 -0.16)">
       <use xlink:href="#BitstreamVeraSans-Roman-31"/>
       <use x="63.623046875" xlink:href="#BitstreamVeraSans-Roman-30"/>
      </g>
     </g>
    </g>
    <g id="ytick_4">
     <g id="line2d_27">
      <g>
       <use style="stroke:#000000;stroke-width:0.5;" x="63.0" xlink:href="#m5507605074" y="181.44"/>
      </g>
     </g>
     <g id="line2d_28">
      <g>
       <use style="stroke:#000000;stroke-width:0.5;" x="453.6" xlink:href="#mdea19069bd" y="181.44"/>
      </g>
     </g>
     <g id="text_13">
      <!-- 20 -->
      <g transform="translate(38.64 185.855)scale(0.16 -0.16)">
       <use xlink:href="#BitstreamVeraSans-Roman-32"/>
       <use x="63.623046875" xlink:href="#BitstreamVeraSans-Roman-30"/>
      </g>
     </g>
    </g>
    <g id="ytick_5">
     <g id="line2d_29">
      <g>
       <use style="stroke:#000000;stroke-width:0.5;" x="63.0" xlink:href="#m5507605074" y="112.32"/>
      </g>
     </g>
     <g id="line2d_30">
      <g>
       <use style="stroke:#000000;stroke-width:0.5;" x="453.6" xlink:href="#mdea19069bd" y="112.32"/>
      </g>
     </g>
     <g id="text_14">
      <!-- 30 -->
      <defs>
       <path d="M 40.578125 39.3125 
Q 47.65625 37.796875 51.625 33 
Q 55.609375 28.21875 55.609375 21.1875 
Q 55.609375 10.40625 48.1875 4.484375 
Q 40.765625 -1.421875 27.09375 -1.421875 
Q 22.515625 -1.421875 17.65625 -0.515625 
Q 12.796875 0.390625 7.625 2.203125 
L 7.625 11.71875 
Q 11.71875 9.328125 16.59375 8.109375 
Q 21.484375 6.890625 26.8125 6.890625 
Q 36.078125 6.890625 40.9375 10.546875 
Q 45.796875 14.203125 45.796875 21.1875 
Q 45.796875 27.640625 41.28125 31.265625 
Q 36.765625 34.90625 28.71875 34.90625 
L 20.21875 34.90625 
L 20.21875 43.015625 
L 29.109375 43.015625 
Q 36.375 43.015625 40.234375 45.921875 
Q 44.09375 48.828125 44.09375 54.296875 
Q 44.09375 59.90625 40.109375 62.90625 
Q 36.140625 65.921875 28.71875 65.921875 
Q 24.65625 65.921875 20.015625 65.03125 
Q 15.375 64.15625 9.8125 62.3125 
L 9.8125 71.09375 
Q 15.4375 72.65625 20.34375 73.4375 
Q 25.25 74.21875 29.59375 74.21875 
Q 40.828125 74.21875 47.359375 69.109375 
Q 53.90625 64.015625 53.90625 55.328125 
Q 53.90625 49.265625 50.4375 45.09375 
Q 46.96875 40.921875 40.578125 39.3125 
" id="BitstreamVeraSans-Roman-33"/>
      </defs>
      <g transform="translate(38.64 116.735)scale(0.16 -0.16)">
       <use xlink:href="#BitstreamVeraSans-Roman-33"/>
       <use x="63.623046875" xlink:href="#BitstreamVeraSans-Roman-30"/>
      </g>
     </g>
    </g>
    <g id="ytick_6">
     <g id="line2d_31">
      <g>
       <use style="stroke:#000000;stroke-width:0.5;" x="63.0" xlink:href="#m5507605074" y="43.2"/>
      </g>
     </g>
     <g id="line2d_32">
      <g>
       <use style="stroke:#000000;stroke-width:0.5;" x="453.6" xlink:href="#mdea19069bd" y="43.2"/>
      </g>
     </g>
     <g id="text_15">
      <!-- 40 -->
      <g transform="translate(38.64 47.615)scale(0.16 -0.16)">
       <use xlink:href="#BitstreamVeraSans-Roman-34"/>
       <use x="63.623046875" xlink:href="#BitstreamVeraSans-Roman-30"/>
      </g>
     </g>
    </g>
    <g id="text_16">
     <!-- voltage (mV) -->
     <defs>
      <path d="M 30.609375 48.390625 
Q 23.390625 48.390625 19.1875 42.75 
Q 14.984375 37.109375 14.984375 27.296875 
Q 14.984375 17.484375 19.15625 11.84375 
Q 23.34375 6.203125 30.609375 6.203125 
Q 37.796875 6.203125 41.984375 11.859375 
Q 46.1875 17.53125 46.1875 27.296875 
Q 46.1875 37.015625 41.984375 42.703125 
Q 37.796875 48.390625 30.609375 48.390625 
M 30.609375 56 
Q 42.328125 56 49.015625 48.375 
Q 55.71875 40.765625 55.71875 27.296875 
Q 55.71875 13.875 49.015625 6.21875 
Q 42.328125 -1.421875 30.609375 -1.421875 
Q 18.84375 -1.421875 12.171875 6.21875 
Q 5.515625 13.875 5.515625 27.296875 
Q 5.515625 40.765625 12.171875 48.375 
Q 18.84375 56 30.609375 56 
" id="BitstreamVeraSans-Roman-6f"/>
      <path d="M 9.421875 75.984375 
L 18.40625 75.984375 
L 18.40625 0 
L 9.421875 0 
z
" id="BitstreamVeraSans-Roman-6c"/>
      <path d="M 28.609375 0 
L 0.78125 72.90625 
L 11.078125 72.90625 
L 34.1875 11.53125 
L 57.328125 72.90625 
L 67.578125 72.90625 
L 39.796875 0 
z
" id="BitstreamVeraSans-Roman-56"/>
      <path d="M 2.984375 54.6875 
L 12.5 54.6875 
L 29.59375 8.796875 
L 46.6875 54.6875 
L 56.203125 54.6875 
L 35.6875 0 
L 23.484375 0 
z
" id="BitstreamVeraSans-Roman-76"/>
      <path d="M 45.40625 27.984375 
Q 45.40625 37.75 41.375 43.109375 
Q 37.359375 48.484375 30.078125 48.484375 
Q 22.859375 48.484375 18.828125 43.109375 
Q 14.796875 37.75 14.796875 27.984375 
Q 14.796875 18.265625 18.828125 12.890625 
Q 22.859375 7.515625 30.078125 7.515625 
Q 37.359375 7.515625 41.375 12.890625 
Q 45.40625 18.265625 45.40625 27.984375 
M 54.390625 6.78125 
Q 54.390625 -7.171875 48.1875 -13.984375 
Q 42 -20.796875 29.203125 -20.796875 
Q 24.46875 -20.796875 20.265625 -20.09375 
Q 16.0625 -19.390625 12.109375 -17.921875 
L 12.109375 -9.1875 
Q 16.0625 -11.328125 19.921875 -12.34375 
Q 23.78125 -13.375 27.78125 -13.375 
Q 36.625 -13.375 41.015625 -8.765625 
Q 45.40625 -4.15625 45.40625 5.171875 
L 45.40625 9.625 
Q 42.625 4.78125 38.28125 2.390625 
Q 33.9375 0 27.875 0 
Q 17.828125 0 11.671875 7.65625 
Q 5.515625 15.328125 5.515625 27.984375 
Q 5.515625 40.671875 11.671875 48.328125 
Q 17.828125 56 27.875 56 
Q 33.9375 56 38.28125 53.609375 
Q 42.625 51.21875 45.40625 46.390625 
L 45.40625 54.6875 
L 54.390625 54.6875 
z
" id="BitstreamVeraSans-Roman-67"/>
      <path d="M 34.28125 27.484375 
Q 23.390625 27.484375 19.1875 25 
Q 14.984375 22.515625 14.984375 16.5 
Q 14.984375 11.71875 18.140625 8.90625 
Q 21.296875 6.109375 26.703125 6.109375 
Q 34.1875 6.109375 38.703125 11.40625 
Q 43.21875 16.703125 43.21875 25.484375 
L 43.21875 27.484375 
z
M 52.203125 31.203125 
L 52.203125 0 
L 43.21875 0 
L 43.21875 8.296875 
Q 40.140625 3.328125 35.546875 0.953125 
Q 30.953125 -1.421875 24.3125 -1.421875 
Q 15.921875 -1.421875 10.953125 3.296875 
Q 6 8.015625 6 15.921875 
Q 6 25.140625 12.171875 29.828125 
Q 18.359375 34.515625 30.609375 34.515625 
L 43.21875 34.515625 
L 43.21875 35.40625 
Q 43.21875 41.609375 39.140625 45 
Q 35.0625 48.390625 27.6875 48.390625 
Q 23 48.390625 18.546875 47.265625 
Q 14.109375 46.140625 10.015625 43.890625 
L 10.015625 52.203125 
Q 14.9375 54.109375 19.578125 55.046875 
Q 24.21875 56 28.609375 56 
Q 40.484375 56 46.34375 49.84375 
Q 52.203125 43.703125 52.203125 31.203125 
" id="BitstreamVeraSans-Roman-61"/>
     </defs>
     <g transform="translate(16.905 267.9425)rotate(-90.0)scale(0.16 -0.16)">
      <use xlink:href="#BitstreamVeraSans-Roman-76"/>
      <use x="59.1796875" xlink:href="#BitstreamVeraSans-Roman-6f"/>
      <use x="120.361328125" xlink:href="#BitstreamVeraSans-Roman-6c"/>
      <use x="148.14453125" xlink:href="#BitstreamVeraSans-Roman-74"/>
      <use x="187.353515625" xlink:href="#BitstreamVeraSans-Roman-61"/>
      <use x="248.6328125" xlink:href="#BitstreamVeraSans-Roman-67"/>
      <use x="312.109375" xlink:href="#BitstreamVeraSans-Roman-65"/>
      <use x="373.6328125" xlink:href="#BitstreamVeraSans-Roman-20"/>
      <use x="405.419921875" xlink:href="#BitstreamVeraSans-Roman-28"/>
      <use x="444.43359375" xlink:href="#BitstreamVeraSans-Roman-6d"/>
      <use x="541.845703125" xlink:href="#BitstreamVeraSans-Roman-56"/>
      <use x="610.25390625" xlink:href="#BitstreamVeraSans-Roman-29"/>
     </g>
    </g>
   </g>
  </g>
 </g>
 <defs>
  <clipPath id="pf8340b7136">
   <rect height="345.6" width="390.6" x="63.0" y="43.2"/>
  </clipPath>
 </defs>
</svg>
